<svg xmlns="http://www.w3.org/2000/svg" viewBox="0 0 1920 1684.85"><defs><style>.cls-1{fill:#fff;}</style></defs><g id="Capa_2" data-name="Capa 2"><g id="Capa_1-2" data-name="Capa 1"><path class="cls-1" d="M1577.55,384.19H1469.29L959.81,847.37,450.28,384.19H341.92L0,763.64v91.58l912.68,829.63h94.25l172.9-157.24.53.49,5.39-5.87L1920,854.79V764.17ZM359.76,464.05l-4.51,270L74.09,770.62ZM928,1613.62,71,834.57,374.11,795.2l1.65,1.5L928,1298.62Zm0-400.19L418.08,750l.05-2.18,4.95-303.13L928,903.66Zm917.48-442.81-281.16-36.56-4.51-270Zm-853.82,133,504.83-459,4.94,303.08-1.6,1.51L991.61,1211.15Zm0,710V1296.34l551.32-501.19,2.57.05,303,39.37Z"/><path class="cls-1" d="M1277.09,0H639.27L523.64,138.76V201.5l18.52,16.83L724.61,384.19,907.3,550.3h101.77l182.69-166.11,182.45-165.86,22.15-20.17v-55ZM925.38,481.6,818.23,384.19,635.78,218.33,580.9,168.44,668.75,63H925.38Zm355.25-263.27-182.5,165.86L991,481.6V63h256.63l87.86,105.45Z"/></g></g></svg>