<svg xmlns="http://www.w3.org/2000/svg" viewBox="0 0 1920 1942.42"><defs><style>.cls-1{fill:#fff;}</style></defs><g id="Capa_2" data-name="Capa 2"><g id="Capa_1-2" data-name="Capa 1"><path class="cls-1" d="M1406.84,696.84H1328.5L959.86,1032,591.19,696.84H512.78L265.38,971.39v66.27l660.38,600.28H994l125.1-113.77.39.35,3.89-4.24,531.28-482.94V971.77ZM525.69,754.62,522.43,950,319,976.44Zm411.12,831.79-620-563.7,219.29-28.48,1.19,1.08,399.55,363.17Zm0-289.57L567.89,961.5l0-1.58,3.57-219.33L936.81,1072.7Zm663.85-320.4L1397.22,950,1394,754.62ZM982.87,1072.7l365.28-332.11,3.57,219.29-1.15,1.09-367.7,334.22Zm0,513.71V1356.83l398.92-362.64,1.86,0,219.26,28.48Z"/><path class="cls-1" d="M1189.43,418.85H727.93l-83.67,100.4v45.4l13.4,12.17,132,120L921.87,817H995.5l132.19-120.19,132-120,16-14.59V522.41ZM935,767.32l-77.53-70.48-132-120-39.71-36.1,63.56-76.26H935Zm257-190.5-132,120-77.53,70.48V464.46H1168.1l63.57,76.3Z"/><path class="cls-1" d="M80.7,866l-2.84,19.36L0,873.92l4.63-31.46c2.69-18.34,11.73-36.55,33.91-33.28s25.36,23.26,22.67,41.6l-1.78,12.11ZM42.76,848.07c2.17-14.72-.16-18.53-7.07-19.54s-10.45,1.93-12.62,16.64l-1.78,12.11L41,860.17Z"/><path class="cls-1" d="M71.69,750.27l-6.13,25.35,12,2.91,10.2-42.14,17.75,5.94L91.08,801.92,14.6,783.41,29.31,722.6l17.75,5.94-9.74,40.24,10.12,2.45,6.5-26.9Z"/><path class="cls-1" d="M132.27,661.44,124.57,684l-26.22,8.8L95.54,701l20.78,7.11L110,726.61,35.52,701.14l10-29.33c6.36-18.62,18.46-34.55,39.68-27.3,14.4,4.92,18.66,15.45,17.91,27.53ZM82,684.28c4.48-13.1,5.42-18.34-3.13-21.26s-11.23,1.72-15.71,14.82l-3.7,10.83,18.84,6.44Z"/><path class="cls-1" d="M134.38,556.68c26.8,12.37,30.89,31.9,20.58,54.23s-27.77,31.79-54.57,19.42L66.11,614.51l8.15-17.66,34.28,15.82c11.63,5.37,21.14,8.24,29.39-9.62s-.07-23.34-11.7-28.71L92,558.52l8.15-17.65ZM66.16,568.54l8-17.24,9.37,16.55-6.18,13.4Z"/><path class="cls-1" d="M140.11,471.92l19.24-30.2,40.33,25.7c17.17,10.94,20.47,26.2,10.51,41.83a104.48,104.48,0,0,1-16,19.22l-13.48-13.34s8.48-7.76,13.52-15.67c4.48-7,.92-11.89-5-15.64l-24.61-15.68L155,483.29Z"/><path class="cls-1" d="M202.48,447.35c-21.48-16.72-19.8-39.18-4.69-58.59s36.48-26.56,58-9.83,19.82,39.35,4.78,58.67S224.06,464.15,202.48,447.35Zm12-15.43c9.3,7.24,20.45,8.37,31.41-5.71s7.12-24.61-2.18-31.85-20.42-8.21-31.31,5.78S205.29,424.75,214.5,431.92Z"/><path class="cls-1" d="M280.58,337.8l-9.48-30.74,15.61-18.3,14.84,55.52,21.6,20.46-13.38,14.11-21.59-20.46-54.93-11.55,14.58-17.23Z"/><path class="cls-1" d="M384.37,307l-10.59-6-22.2,19.81,4.79,11.21-15.71,14-30.82-76.3L326.59,253l73.49,39.92ZM344,302.54l12.63-11.28-23-13.06Z"/><path class="cls-1" d="M433.37,268.72a105.2,105.2,0,0,1-29.21,15.51l-7.23-17A110,110,0,0,0,421.7,254c8.57-6.31,16.64-11.95,13-16.93-2.71-3.68-5.22-2.27-16.18,4.65-14.78,9.45-33,16.33-43.39,2.22-10.84-14.75-.27-30.9,13.92-41.33a117.48,117.48,0,0,1,23.89-13.87l8.33,16.74a133.42,133.42,0,0,0-21.1,12.25c-10.33,7.59-12.46,10.29-9.61,14.16s8,.4,17.58-5.83c14.42-9.17,31.21-15.7,41.71-1.41C461.9,241.07,448.12,257.87,433.37,268.72Z"/><path class="cls-1" d="M605.49,168.22l-18,7.57L557,103.21l29.33-12.3c17.09-7.17,37.35-8.85,46,11.83s-6.81,33.75-23.9,40.92l-11.29,4.73Zm-4.25-41.76c13.72-5.75,15.78-9.72,13.08-16.15s-7.06-8-20.78-2.21l-11.28,4.74L590,131.2Z"/><path class="cls-1" d="M700,100.7l-24.88,7.84,3.72,11.79,41.36-13,4.07,18.27L665.74,144,642.08,68.92,701.77,50.1l4.08,18.27-39.5,12.45,3.13,9.93,26.41-8.32Z"/><path class="cls-1" d="M807.31,106.7l-23.25,5L763,93.83l-8.5,1.84,4.65,21.47L740,121.29,723.33,44.36l30.3-6.57c19.24-4.17,39.13-2,43.88,19.88,3.22,14.87-3.59,24-14.32,29.56ZM761.8,75.47c13.53-2.93,18.5-4.83,16.59-13.66s-7.28-8.73-20.81-5.79L746.4,58.44l4.22,19.46Z"/><path class="cls-1" d="M898,54.37C901.3,83.7,886.7,97.3,862.26,100s-41.57-7.34-44.84-36.68l-4.17-37.52,19.33-2.15,4.17,37.52c1.42,12.74,3.87,22.36,23.43,20.19s20-12.12,18.53-24.86L874.53,19l19.33-2.15ZM852.62,2.1,871.49,0l-9.31,16.58-14.67,1.63Z"/><path class="cls-1" d="M973.57,15.36l35.8.79L1008.31,64c-.46,20.36-11.79,31.09-30.32,30.68a104.12,104.12,0,0,1-24.75-3.75l4.41-18.44s11,3.22,20.41,3.43c8.35.18,10.65-5.37,10.8-12.35l.65-29.16-18-.4Z"/><path class="cls-1" d="M1026.91,55.94c3.13-27,23.2-37.26,47.63-34.43s41.62,17.38,38.49,44.42-23.34,37.37-47.65,34.55S1023.75,83.09,1026.91,55.94Zm19.42,2.25C1045,69.9,1049.79,80,1067.52,82.07s24.72-6.69,26.08-18.39S1090,42,1072.41,39.92,1047.68,46.61,1046.33,58.19Z"/><path class="cls-1" d="M1161,65.84l21.36-24.05,23.75,3.86-39.77,41.48-6.3,29.06-19-4.11,6.3-29.07-18.61-53L1151,33.59Z"/><path class="cls-1" d="M1241.17,138.67l-.32-12.19-28.42-8.75-7.12,9.9-20.12-6.19,49.35-65.85,22.89,5.73,3.86,83.54ZM1224,101.79l16.18,5-.72-26.43Z"/><path class="cls-1" d="M1299.15,160.83a105.2,105.2,0,0,1-28.37-17l10.8-15a110.37,110.37,0,0,0,24.13,14.37c9.83,4.08,18.83,8.07,21.2,2.37,1.75-4.23-.75-5.64-12.34-11.45-15.72-7.78-31-19.84-24.31-36,7-16.91,26.31-16.2,42.58-9.43A117.66,117.66,0,0,1,1357.05,102l-10,15.78a134.11,134.11,0,0,0-21.38-11.74c-11.83-4.92-15.25-5.35-17.09-.91s3.77,7,14.07,12c15.3,7.6,29.55,18.61,22.75,35C1337.55,171,1316.05,167.85,1299.15,160.83Z"/><path class="cls-1" d="M1474.12,256.44l-15.8-11.54,46.44-63.56,25.68,18.76c15,10.94,26.87,27.43,13.64,45.53s-32.42,11.6-47.38.67l-9.89-7.22Zm33.58-25.2c12,8.77,16.47,8.49,20.58,2.85s3.17-10.15-8.84-18.93l-9.88-7.22L1497.81,224Z"/><path class="cls-1" d="M1580.68,302.36l-19.58-17.23-8.16,9.27,32.55,28.65L1572,336l-46-40.51,52-59.08,47,41.34-13.52,12.94-31.09-27.36-6.87,7.81,20.78,18.29Z"/><path class="cls-1" d="M1631.3,397.4l-16.36-17.28,4.38-27.31-6-6.31-15.95,15.1-13.45-14.2,57.15-54.13,21.32,22.51c13.53,14.29,22,32.41,5.74,47.83-11.05,10.46-22.35,9.34-32.7,3.07Zm3.11-55.1c9.52,10.05,13.73,13.32,20.29,7.1s3.69-10.74-5.83-20.79L1641,320.3,1626.55,334Z"/><path class="cls-1" d="M1723.14,447.77c-23.38,18-42.57,12.6-57.59-6.87s-15.31-39.34,8.07-57.36l29.89-23.05,11.88,15.4-29.9,23.05c-10.15,7.82-17.1,14.92-5.09,30.5s20.72,10.75,30.86,2.93l29.9-23.05,11.88,15.4Zm21.09-65.95,11.59,15-19,.64-9-11.69Z"/><path class="cls-1" d="M1795.65,492.16l17.86,31L1772.05,547c-17.65,10.15-32.7,6-41.94-10.06a104,104,0,0,1-9.6-23.12l18.06-5.77s3,11.11,7.63,19.24c4.16,7.24,10.11,6.33,16.16,2.85l25.29-14.54-9-15.58Z"/><path class="cls-1" d="M1788.53,558.73c24.78-11.29,43.9.61,54.1,23s6.63,44.63-18.15,55.92-44.06-.67-54.21-22.95S1763.64,570.07,1788.53,558.73Zm8.11,17.8c-10.73,4.89-16.9,14.24-9.5,30.48s18.51,17.72,29.23,12.84,16.75-14.3,9.39-30.44S1807.26,571.69,1796.64,576.53Z"/><path class="cls-1" d="M1849.35,678.7l31.63,5.88,9,22.32-56.07-12.64-28.15,9.62-6.28-18.41,28.14-9.61,35.76-43.29,8.47,20.93Z"/><path class="cls-1" d="M1828.39,784.91l10.27-6.57-7.2-28.86-12.15-1-5.09-20.42,81.87,8.23,6.92,22.56-69.53,46.46Zm22.71-33.73,4.1,16.43,22.26-14.27Z"/><path class="cls-1" d="M1839.37,846.05a104.85,104.85,0,0,1-.1-33.07l18.39,1.52a110.14,110.14,0,0,0,.16,28.09c1.57,10.52,2.81,20.28,8.92,19.37,4.52-.68,4.44-3.56,3.43-16.48-1.47-17.48,1-36.81,18.27-39.41,18.1-2.71,27.45,14.17,30.06,31.59a118.21,118.21,0,0,1,1.13,27.59l-18.69-.44a133.91,133.91,0,0,0-1-24.37c-1.9-12.67-3.3-15.82-8-15.11s-4.06,6.86-3.05,18.27c1.4,17-.66,34.92-18.2,37.55C1850.52,884.17,1842.08,864.15,1839.37,846.05Z"/><rect class="cls-1" x="961.1" y="1907.36" width="21.7" height="21.7" transform="translate(-1067.2 1235.52) rotate(-44.62)"/><rect class="cls-1" x="15.83" y="968.94" width="37.78" height="37.78" transform="translate(-688.34 313.88) rotate(-45)"/><rect class="cls-1" x="1868.82" y="971.74" width="37.78" height="37.78" transform="translate(-147.58 1624.96) rotate(-45)"/><rect class="cls-1" x="1405.19" y="154.75" width="28.22" height="28.22" transform="translate(44 558.06) rotate(-22.59)"/><rect class="cls-1" x="489.03" y="156.59" width="28.22" height="28.22" transform="translate(162.94 578.8) rotate(-68.93)"/><path class="cls-1" d="M25.68,1101.71l7.46-3.37-2-19.86-8-1.83-1.4-14.06L75.36,1076l2.41,15.65-50.69,24.11ZM44,1081.52l1.13,11.31,16.17-7.32Z"/><path class="cls-1" d="M36.28,1173.46l-2.15-13.27,28.49-30.62-32.53,5.75L28,1122.43,80.17,1114l2,12.66-27.72,31,31.86-5.56L88.45,1165Zm63.37-29.12,1.38,8.49c-10.54,1.71-15.91-7.38-12.72-15,1-2.35.56-3.75-1.49-3.42l-1.37-8.5c10.54-1.7,15.9,7.39,12.64,15.08C97.14,1143.27,97.6,1144.68,99.65,1144.34Z"/><path class="cls-1" d="M46.21,1218.39l7-4.25-4.42-19.47-8.14-.84-3.12-13.78,54.83,6.71L96.67,1202l-47.34,30.18Zm15.73-22.3,2.51,11.08,15.15-9.25Z"/><path class="cls-1" d="M51.12,1238.7,101.88,1224l5,17.26c4.71,16.23.53,31-17.1,36.15s-28.94-5.2-33.65-21.43Zm15.66,9,1.37,4.72c3.62,12.47,9,14.9,18,12.3s12.35-7.58,8.74-20L93.49,1240Z"/><path class="cls-1" d="M71.34,1304.51l-4.15-12.38,50.09-16.82,4.16,12.38Z"/><path class="cls-1" d="M79.41,1327.58l-4.8-12.14L123.72,1296l6.22,15.7-24.68,26.12,35.89,2.23,6.22,15.7-49.12,19.43-4.8-12.13,28.84-11.41-34-1.66-3.7-9.35,23.67-24.47Z"/><path class="cls-1" d="M125.81,1372c16.44-8,29.47-.29,36.67,14.56s5.16,29.84-11.28,37.81-29.57.26-36.74-14.53S109.3,1380,125.81,1372Zm5.73,11.82c-7.12,3.44-11.11,9.82-5.89,20.59s12.71,11.59,19.82,8.15,11-9.86,5.81-20.57S138.58,1380.38,131.54,1383.8Z"/><path class="cls-1" d="M141.12,1460.76a70.75,70.75,0,0,1-8-20.71l11.9-3.46a73.9,73.9,0,0,0,6.85,17.56c3.52,6.22,6.64,12,10.25,10,2.68-1.51,1.93-3.3-1.81-11.15-5.12-10.61-8.25-23.31,2-29.1,10.69-6.05,20.62,2.28,26.44,12.57a78.53,78.53,0,0,1,7.35,17l-11.83,4.22a89.31,89.31,0,0,0-6.48-15c-4.24-7.49-5.87-9.12-8.68-7.53s-.9,5.28,2.49,12.19c5,10.33,8,22.05-2.39,27.91C157.27,1482,147.17,1471.46,141.12,1460.76Z"/><path class="cls-1" d="M189.18,1536.92l5-6.5L183,1513.88l-7.89,2.19-7.91-11.71,53.51-13.67,9.56,12.63-33.13,45.31Zm6.54-26.49,6.37,9.41,10.75-14.13Z"/><path class="cls-1" d="M209.12,1564.71l-8.05-10.29,41.63-32.56,10.41,13.32-16.29,32,35.07-8,10.41,13.31-41.62,32.56-8-10.29,24.44-19.11-33.11,8-6.2-7.92,15.79-30.19Z"/><path class="cls-1" d="M266.2,1594.14c13.52-12.3,28.2-8.62,39.31,3.6s13.41,27.16-.11,39.47-28.31,8.62-39.37-3.54S252.63,1606.5,266.2,1594.14Zm8.84,9.72c-5.84,5.32-7.87,12.57.19,21.43s15.47,7.53,21.33,2.2,7.76-12.57-.25-21.38S280.84,1598.59,275,1603.86Z"/><path class="cls-1" d="M325.2,1693.22l-11.47-11.12,2.16-18.45-4.2-4.06-10.26,10.59L292,1661l36.76-37.94,14.95,14.48c9.49,9.19,15.71,21.09,5.23,31.9-7.1,7.34-14.71,6.92-21.84,3Zm.51-37c6.67,6.46,9.58,8.53,13.8,4.18s2.17-7.31-4.51-13.78l-5.51-5.35-9.3,9.6Z"/><path class="cls-1" d="M383.27,1715.66l-13.47-11.2-5.3,6.38,22.38,18.61-8.84,8.94-31.64-26.33,33.79-40.62,32.29,26.86-8.83,8.94-21.37-17.77-4.47,5.36,14.29,11.89Z"/><path class="cls-1" d="M427.31,1775.14l-10.83-8-1.1-41.8-19.2,26.88-10.51-7.73L417,1702l10.33,7.6,1.94,41.57,18.85-26.29,10.52,7.74Z"/><path class="cls-1" d="M497.21,1801.86l-2.46,12.19c-6.64-1.21-12-3.06-19.58-7.73-14-8.62-20.26-22.3-10.68-37.86s24.67-16.19,38.65-7.57a62.7,62.7,0,0,1,14.57,12.21l-9.37,8.2a60.93,60.93,0,0,0-11.8-9.69c-8.82-5.43-16-4.24-20.87,3.74s-2.72,14.81,6.1,20.25A44.65,44.65,0,0,0,497.21,1801.86Z"/><path class="cls-1" d="M531.74,1837.94l1.36-8.07-17.6-9.44-6,5.6-12.45-6.68,41-37,14.35,6.73-8.27,55.54Zm-6.53-26.51,10,5.37,2.94-17.51Z"/><path class="cls-1" d="M550.2,1847.52l22.19-48,16.31,7.55c15.35,7.1,23.78,20,16.07,36.64s-22.92,18.43-38.26,11.33Zm17.11-5.88,4.46,2.06c11.78,5.45,17.17,3,21.08-5.49s2.38-14.29-9.4-19.75L579,1816.4Z"/><path class="cls-1" d="M632.54,1883.14,633,1875l-18.57-7.34-5.28,6.26-13.14-5.2,36.47-41.5,15,5-1.79,56.13ZM623,1857.56l10.58,4.18.9-17.73Z"/><path class="cls-1" d="M683,1900.66l-12.55-3.84,15.43-50.51,20.41,6.24c11.89,3.63,23.07,11.46,18.67,25.85s-18,14.49-29.88,10.85l-7.86-2.39Zm15.73-23.37c9.55,2.91,12.31,1.75,13.68-2.73s-.23-7.13-9.78-10l-7.85-2.4-3.91,12.78Z"/><path class="cls-1" d="M735.68,1915.64l-12.62-3.3,13.36-51.11,12.63,3.3Z"/><path class="cls-1" d="M780.49,1904.65l-17.1-3.75-1.78,8.1,28.43,6.23-3.73,12-40.2-8.82,11.31-51.6,41,9-3.73,12-27.16-6-1.49,6.83,18.15,4Z"/><path class="cls-1" d="M843,1924l-3.05,12.18-46.1-7.42,3.17-12.48,30.61-22.92L800.83,1889l3.06-12.19,44.36,7.14-3.14,12.25-30.35,23.2Z"/><path class="cls-1" d="M884.85,1941l-1.83-8-19.86-2-3.39,7.45L845.71,1937l23.81-49.86,15.83.76,13.55,54.49Zm-16.15-22,11.31,1.14-4-17.3Z"/><path class="cls-1" d="M1077.18,1938.35l-3.39-7.45-19.87,2-1.81,8-14.07,1.43,13.32-53.63,15.66-2.45,24.22,50.67ZM1056.94,1920l11.31-1.15-7.36-16.16Z"/><path class="cls-1" d="M1148.66,1927.69l-13.26,2.17-30.64-28.43,5.79,32.5-12.88,2.11-8.53-52.13,12.65-2.07,31.06,27.67-5.61-31.84,12.88-2.11Zm-29.19-63.29,8.48-1.4c1.73,10.54-7.35,15.92-15,12.74-2.34-1-3.74-.55-3.41,1.49l-8.48,1.39c-1.73-10.53,7.35-15.91,15-12.66C1118.4,1866.91,1119.8,1866.44,1119.47,1864.4Z"/><path class="cls-1" d="M1193.6,1917.67l-4.27-7-19.47,4.44-.83,8.15-13.77,3.14,6.63-54.84,15.24-4.35,30.24,47.3Zm-22.33-15.7,11.08-2.53-9.28-15.13Z"/><path class="cls-1" d="M1213.77,1912.74,1199,1862l17.25-5c16.21-4.73,31-.57,36.15,17s-5.15,28.93-21.37,33.67Zm9-15.66,4.72-1.38c12.45-3.63,14.87-9.06,12.27-18s-7.6-12.34-20-8.71l-4.72,1.38Z"/><path class="cls-1" d="M1279.72,1892.37l-12.37,4.17-16.89-50,12.37-4.16Z"/><path class="cls-1" d="M1302.77,1884.25l-12.13,4.83L1271.1,1840l15.7-6.25,26.17,24.64,2.16-35.91,15.7-6.25,19.54,49.1-12.13,4.83-11.47-28.83-1.59,34-9.35,3.72-24.53-23.63Z"/><path class="cls-1" d="M1347.06,1837.79c-8-16.42-.35-29.46,14.49-36.7s29.82-5.23,37.83,11.2.32,29.57-14.45,36.78S1355.1,1854.29,1347.06,1837.79Zm11.8-5.75c3.47,7.11,9.85,11.09,20.62,5.84s11.56-12.73,8.09-19.83-9.88-11-20.58-5.78S1355.43,1825,1358.86,1832Z"/><path class="cls-1" d="M1435.82,1822.34a70.47,70.47,0,0,1-20.69,8l-3.49-11.88a74.28,74.28,0,0,0,17.56-6.89c6.21-3.53,12-6.66,10-10.26-1.52-2.67-3.3-1.92-11.15,1.83-10.6,5.14-23.29,8.28-29.1-1.93-6.07-10.69,2.24-20.63,12.53-26.47a78.72,78.72,0,0,1,17-7.36l4.24,11.81a90,90,0,0,0-15,6.5c-7.48,4.26-9.11,5.89-7.52,8.7s5.28.88,12.18-2.51c10.33-5,22-8,27.92,2.34C1457,1806.15,1446.51,1816.27,1435.82,1822.34Z"/><path class="cls-1" d="M1511.9,1774.15l-6.52-5-16.52,11.22,2.2,7.88-11.69,7.93-13.76-53.48,12.61-9.58,45.37,33Zm-26.51-6.5,9.4-6.39-14.14-10.72Z"/><path class="cls-1" d="M1539.63,1754.17l-10.27,8.06-32.62-41.54,13.28-10.43,32.06,16.21-8.09-35,13.29-10.43,32.62,41.54-10.26,8.06-19.16-24.39,8.1,33.07-7.91,6.21-30.2-15.72Z"/><path class="cls-1" d="M1569,1697c-12.33-13.51-8.67-28.19,3.53-39.32s27.16-13.45,39.48,0,8.67,28.29-3.47,39.38S1581.36,1710.59,1569,1697Zm9.71-8.86c5.33,5.84,12.58,7.86,21.43-.22s7.51-15.49,2.17-21.33-12.59-7.75-21.38.28S1573.39,1682.38,1578.68,1688.17Z"/><path class="cls-1" d="M1667.93,1637.86l-11.09,11.49-18.45-2.11-4.05,4.2,10.61,10.24-9.12,9.44-38-36.68,14.45-15c9.17-9.5,21.06-15.75,31.9-5.29,7.34,7.08,6.94,14.7,3,21.83Zm-37-.42c6.46-6.69,8.52-9.6,4.16-13.82s-7.32-2.15-13.77,4.54l-5.33,5.52,9.61,9.28Z"/><path class="cls-1" d="M1690.33,1579.7l-11.17,13.48,6.39,5.29,18.57-22.4,9,8.81-26.26,31.69-40.68-33.7,26.79-32.35,9,8.81-17.74,21.41,5.38,4.45,11.86-14.3Z"/><path class="cls-1" d="M1749.72,1535.65l-8,10.83-41.79,1.15,26.89,19.16-7.72,10.53-42.6-31.26,7.58-10.34,41.57-2-26.3-18.82,7.72-10.52Z"/><path class="cls-1" d="M1776.32,1465.65l12.2,2.44c-1.2,6.65-3,12-7.71,19.6-8.6,14-22.28,20.31-37.87,10.75s-16.23-24.66-7.63-38.67a62.37,62.37,0,0,1,12.2-14.59l8.22,9.37a61.09,61.09,0,0,0-9.69,11.81c-5.42,8.84-4.21,16,3.77,20.88s14.84,2.71,20.26-6.14A44.43,44.43,0,0,0,1776.32,1465.65Z"/><path class="cls-1" d="M1812.32,1431.1l-8.07-1.35-9.41,17.6,5.61,6-6.67,12.46-37-41,6.71-14.35,55.54,8.18Zm-26.5,6.56,5.36-10-17.51-2.92Z"/><path class="cls-1" d="M1821.91,1412.53l-48-22.12,7.53-16.33c7.07-15.34,19.93-23.8,36.6-16.11s18.46,22.88,11.39,38.23Zm-5.91-17.1,2.06-4.47c5.43-11.79,2.93-17.17-5.52-21.06s-14.3-2.36-19.73,9.42l-2.06,4.47Z"/><path class="cls-1" d="M1857.33,1330.21l-8.17-.4-7.3,18.58,6.26,5.27L1843,1366.8l-41.56-36.37,5-15,56.11,1.66Zm-25.55,9.6,4.16-10.58-17.73-.86Z"/><path class="cls-1" d="M1874.79,1279.67l-3.82,12.56-50.54-15.35,6.21-20.43c3.61-11.9,11.42-23.08,25.82-18.71s14.52,18,10.91,29.87l-2.39,7.87Zm-23.4-15.69c2.9-9.56,1.74-12.32-2.74-13.68s-7.14.24-10,9.79l-2.39,7.86,12.78,3.88Z"/><path class="cls-1" d="M1889.67,1227l-3.28,12.63-51.13-13.25,3.27-12.63Z"/><path class="cls-1" d="M1878.59,1182.21l-3.71,17.1,8.1,1.76,6.17-28.44,12,3.7-8.72,40.22-51.62-11.19,8.9-41,12,3.7-5.89,27.17,6.83,1.48,3.94-18.16Z"/><path class="cls-1" d="M1897.84,1119.68l12.18,3-7.36,46.11-12.48-3.17-23-30.56-4.28,26.76-12.18-3,7.08-44.36,12.25,3.12,23.23,30.3Z"/><path class="cls-1" d="M1914.77,1078l-8,1.83-2,19.86,7.46,3.37-1.4,14.06L1861,1093.33l.73-15.82,54.45-13.62Zm-22,16.17,1.13-11.31-17.3,4Z"/></g></g></svg>