<svg xmlns="http://www.w3.org/2000/svg" viewBox="0 0 1920 1355.41"><defs><style>.cls-1{fill:#95785e;}</style></defs><g id="Capa_2" data-name="Capa 2"><g id="Capa_1-2" data-name="Capa 1"><path class="cls-1" d="M1357.38,352.27V316.92l-141.2-156.67h-42.69L959.83,354.5,746.15,160.25H703.42l-141,156.45v35.76l378.88,344.4h37l73.27-66.63,0,0,.25-.27ZM712.63,182.94l-2,122.9-128,16.64ZM949.51,676.81,582.37,343l134.14-17.43,1.7,1.56L949.51,537.4Zm0-166.93L730.88,311.15l0-2.27,2.17-133L949.51,372.66ZM1337,322.48l-128-16.64-2-122.9ZM970.14,372.66l216.38-196.75,2.2,134.29-1.63,1.52L970.14,508.93Zm0,304.15V536.45l231.8-210.73,2.58.07L1337.26,343Z"/><path class="cls-1" d="M1139,57.81,1090.79,0H827.52L780.86,56V79.78L939.07,223.62h40.16L1139,78.38ZM948.43,204.62l-150.74-137L837,20.37H948.43Zm21.44,0V20.37h111.4l39.35,47.23Z"/><path class="cls-1" d="M82.79,883.87l-.2,3H.24L0,890.47c16,2.37,25.73,6.69,25.73,36.66v201.69c0,30-9.7,34.29-25.73,36.67l.24,3.63H86.37l.25-3.63c-14.08-2-25.74-5.51-25.74-36.67v-45H82.37c39.12,0,70.31-16.76,87.84-47.19,18.09-31.41,18.06-71.89-.06-103.14-17.46-30.08-48.48-46.65-87.36-46.65v-3ZM131.57,922c10.69,16.62,16.58,39,16.58,63.14,0,44.21-20.59,91.8-65.78,91.8H60.88V925.54c0-29.11,5.67-31.85,20.69-31.85h.8C108,893.69,123.26,909.1,131.57,922Z"/><path class="cls-1" d="M387.23,1102.71l-3.48-.88c-.22.77-.45,1.6-.69,2.48-5.17,18.82-15.94,58-69.91,58H298.8c-33.75,0-35-3.61-35-31.85V1024h50.58c21,0,25.25,15.08,28.25,33.41l3.68-.3V984.08l-3.67-.3c-3,18.33-7.26,33.4-28.26,33.4H263.76V893.69h44.6c54,0,64.74,39.14,69.92,57.95.24.89.47,1.72.69,2.48l3.48-.87L372.14,892.6l-7.52-5.76H203.12l-.24,3.63c16,2.37,25.73,6.69,25.73,36.66v201.69c0,30-9.71,34.29-25.73,36.67l.24,3.63H370.63l6.08-5Z"/><path class="cls-1" d="M606.73,1145.43c35.4,33.2,72,67.51,115,67.51,41,0,73.72-15.42,97.4-45.85l-2.83-2.83c-8.22,5.67-39.23,25.49-70.65,25.49-35.84,0-66.83-26.52-99.63-54.6-31.41-26.88-63.88-54.68-102.47-60l-9.42-1.3,8.49-4.28c48.29-24.35,59.73-70.14,54.86-102-6.16-40.19-40.1-80.75-102.06-80.75H412.77l-.24,3.63c16,2.37,25.73,6.69,25.73,36.66v201.69c0,30-9.7,34.29-25.73,36.67l.24,3.63h86.14l.24-3.63c-14.09-2-25.74-5.51-25.74-36.67V925.54c0-29.11,5.67-31.85,20.69-31.85h.8c41.59,0,61,38.68,65.05,71.8,5.61,46.37-14.21,99.57-62.77,113.21l.81,4.77c2-.2,4.08-.29,6.11-.29C540.35,1083.18,572.67,1113.48,606.73,1145.43Z"/><path class="cls-1" d="M678.55,1095.46c15.76,15.87,38.46,25,62.28,25,24,0,46.88-9.2,62.71-25.24,16.2-16.42,24.57-39.11,24.22-65.63v-82.5c0-29.58,10.45-52.12,25.75-56.41l-.26-3.81H795.42l-.25,3.81c15.29,4.29,25.74,26.83,25.74,56.41v82.45c0,50.75-33.87,77.3-67.32,77.3-31.93,0-64.14-23.9-64.14-77.3V927.13c0-30,9.71-34.29,25.73-36.66l-.24-3.63H628.8l-.24,3.63c13.87,2,25.34,5.48,25.34,36.66v102.35C653.72,1056.24,662.25,1079.05,678.55,1095.46Z"/><path class="cls-1" d="M1043.39,1132.41V927.13c0-30,9.7-34.29,25.73-36.66l-.24-3.63H982.35l-.24,3.63c16,2.37,25.73,6.69,25.73,36.66v205.28c0,43.13-3.75,60.88-24.29,69.61l1.33,4.84C1004.41,1202.88,1043.39,1187.94,1043.39,1132.41Z"/><path class="cls-1" d="M1231.09,880.86c-38.48,0-74.36,13-101,36.68C1099.9,944.28,1084,982.47,1084,1028s15.88,83.53,45.94,110.28c26.67,23.75,62.61,36.84,101.18,36.84s74.3-13.09,101-36.84c30.15-26.79,46.08-64.93,46.08-110.28C1378.2,926.9,1301.94,880.86,1231.09,880.86Zm12,285.39c-61.59,0-123.93-56.26-123.93-163.78,0-77.9,48.63-112.77,96.82-112.77,30.06,0,60.34,13.14,83.09,36.06,20.35,20.5,44.51,58.34,44,122.15C1342.64,1129.22,1290.93,1166.25,1243.05,1166.25Z"/><path class="cls-1" d="M1582.39,890.4l-.18-3.56h-65.62l-.07,3.43c9.52.75,15.35,3.18,18.24,7.58,4.3,6.55,2.71,17.87-5.46,39.07l-43.91,114.4L1437.1,925c-5.24-14-6.07-22.58-2.71-27.68,2.61-3.95,8.08-6.25,16.69-7l-.08-3.45h-87.09l-.08,3.47c20.35,2,28.24,14.21,43.1,51.76l46.13,117.7v53.91c0,29.46-7.67,44.59-26.33,51.43l.61,4h87l.61-4c-18.66-6.84-26.33-22-26.33-51.43v-53.51l.2-.52,47.52-121.56C1550.55,901.35,1562.35,892.94,1582.39,890.4Z"/><path class="cls-1" d="M1697.55,1081.76c23.18,73,79.64,98.92,124.76,98.92,48.54,0,97.69-30.69,97.69-89.33,0-43.46-41.16-66.47-77.47-86.77L1844,1002h0l-1.45,2.59c-34-19-66-36.9-66-68.28s25.84-47.8,51.38-47.8c28.76,0,57.77,20.23,58.92,65.32l3.61.2,5-43.22c-1.26-2.51-3.66-7.25-4.78-9.2-16.39-12-40.69-19.15-65.15-19.15-36.61,0-79.36,17.13-79.36,65.41,0,42.36,39,64,76.78,85,38.21,21.22,74.29,41.25,74.29,80.81,0,37.91-30.86,57.76-61.35,57.76-35.4,0-84.33-27-105.7-103l-58.3-184h-6.41l-66.72,212.38c-18.24,58.23-26.67,65.91-55.14,68.75l.15,3.52H1623l.16-3.51c-12.34-1.16-20.26-2.65-24.44-8.9-5.45-8.16-4-24.58,4.75-53.09h0l.67-2.66,7-22.32h85.35Zm-84.67-9.58,41.59-132,40.08,132Z"/><polygon class="cls-1" points="795.84 835.7 771.94 818.25 769.59 819.32 755.52 858.42 762.35 858.51 795.78 837.24 795.84 835.7"/><path class="cls-1" d="M382.36,1355.13l-2.45-7.28H361.18l-2.45,7.28H345.48l17.5-48.77,14.84-.79,17.79,49.56Zm-17.15-19h10.66l-5.33-15.77Z"/><path class="cls-1" d="M448.55,1355.13H436l-24.06-31,.43,31H400.08v-49.56h12l24.56,30.32-.36-30.32h12.24Zm-17.43-63h8.07c0,10-9.22,13.62-15.85,9.51-2-1.3-3.38-1.08-3.38.86h-8.07c0-10,9.22-13.61,15.85-9.43C429.75,1294.26,431.12,1294.05,431.12,1292.1Z"/><path class="cls-1" d="M489.76,1355.13l-2.45-7.28H468.58l-2.45,7.28H452.88l17.5-48.77,14.84-.79L503,1355.13Zm-17.14-19h10.66L478,1320.34Z"/><path class="cls-1" d="M507.41,1355.13v-49.56h16.86c15.84,0,28.09,7.64,28.09,24.85s-12.25,24.71-28.09,24.71Zm12.25-11.74h4.61c12.17,0,15.77-4.25,15.77-13s-3.6-13.11-15.77-13.11h-4.61Z"/><path class="cls-1" d="M570.8,1355.13H558.56v-49.56H570.8Z"/><path class="cls-1" d="M592.05,1355.13H579.81v-49.56h15.84l14.27,30.54,14.33-30.54H640.1v49.56H627.85V1326l-13.18,29.1h-9.44L592.05,1326Z"/><path class="cls-1" d="M646.23,1330.35c0-17.14,11.81-25,27.29-25s27.3,7.86,27.3,25-11.88,25.06-27.3,25.06S646.23,1347.56,646.23,1330.35Zm12.31,0c0,7.42,3.75,13.4,15,13.4s15-6,15-13.4-3.82-13.33-15-13.33S658.54,1323,658.54,1330.35Z"/><path class="cls-1" d="M725.46,1355.41a66.23,66.23,0,0,1-20.6-3l2.67-11.31a69.28,69.28,0,0,0,17.5,2.52c6.7,0,12.9.15,12.9-3.74,0-2.89-1.81-3.1-9.95-3.68-11-.72-22.83-4-22.83-15,0-11.52,11.38-15.78,22.48-15.78a74.24,74.24,0,0,1,17.28,1.88l-2,11.59a84.56,84.56,0,0,0-15.27-1.65c-8.07,0-10.16.57-10.16,3.6s3.89,3.17,11.09,3.6c10.73.72,21.68,3.67,21.68,14.84C750.24,1352,737,1355.41,725.46,1355.41Z"/><path class="cls-1" d="M807.37,1355.13l-2.45-7.28H786.19l-2.45,7.28H770.49l17.5-48.77,14.84-.79,17.79,49.56Zm-17.15-19h10.66l-5.33-15.77Z"/><path class="cls-1" d="M837.33,1355.13H825.09v-49.56h15.85l14.26,30.54,14.33-30.54h15.85v49.56H873.13V1326L860,1355.13h-9.43L837.33,1326Z"/><path class="cls-1" d="M891.51,1330.35c0-17.14,11.81-25,27.3-25s27.3,7.86,27.3,25-11.89,25.06-27.3,25.06S891.51,1347.56,891.51,1330.35Zm12.31,0c0,7.42,3.75,13.4,15,13.4s15-6,15-13.4S930,1317,918.81,1317,903.82,1323,903.82,1330.35Z"/><path class="cls-1" d="M995.6,1355.13h-15L970,1341.3h-5.48v13.83H952.24v-49.56h19.51c12.39,0,24.35,4,24.35,18.08,0,9.58-5.4,14.26-12.75,16.28Zm-23.85-25.28c8.72,0,12-.51,12-6.2s-3.31-6.34-12-6.34h-7.2v12.54Z"/><path class="cls-1" d="M1048.61,1335.61h-16.42v7.78h27.3l-1,11.74h-38.61v-49.56h39.4l-1,11.74h-26.08v6.56h17.43Z"/><path class="cls-1" d="M1114.24,1355.13h-12.61l-24.06-31,.44,31h-12.25v-49.56h12l24.56,30.32-.36-30.32h12.25Z"/><path class="cls-1" d="M1180.65,1341l4,11c-5.91,2.3-11.09,3.45-19.45,3.45-15.41,0-27.15-7.85-27.15-25s11.74-25.07,27.15-25.07a59,59,0,0,1,17.65,2.6l-3.46,11.16a57.45,57.45,0,0,0-14.19-1.94c-9.72,0-14.84,4.46-14.84,13.25s5.12,13.18,14.84,13.18A41.69,41.69,0,0,0,1180.65,1341Z"/><path class="cls-1" d="M1224.09,1355.13l-2.45-7.28h-18.72l-2.45,7.28h-13.26l17.51-48.77,14.84-.79,17.79,49.56Zm-17.14-19h10.66l-5.33-15.77Z"/><path class="cls-1" d="M1241.75,1355.13v-49.56h16.85c15.85,0,28.09,7.64,28.09,24.85s-12.24,24.71-28.09,24.71Zm12.24-11.74h4.61c12.17,0,15.77-4.25,15.77-13s-3.6-13.11-15.77-13.11H1254Z"/><path class="cls-1" d="M1324.08,1355.13l-2.45-7.28H1302.9l-2.45,7.28H1287.2l17.5-48.77,14.84-.79,17.79,49.56Zm-17.14-19h10.66l-5.33-15.77Z"/><path class="cls-1" d="M1371.7,1355.13h-12.32v-49.56h20c11.67,0,23.84,4,23.84,18.08s-12.17,17.93-23.84,17.93h-7.7Zm7.7-25.28c9.37,0,11.53-1.81,11.53-6.2s-2.16-6.34-11.53-6.34h-7.7v12.54Z"/><path class="cls-1" d="M1421.76,1355.13h-12.24v-49.56h12.24Z"/><path class="cls-1" d="M1459.43,1335.61H1443v7.78h27.3l-1,11.74h-38.6v-49.56h39.4l-1,11.74H1443v6.56h17.43Z"/><path class="cls-1" d="M1519.51,1343.39l-1,11.74h-43.79l1.08-12,24.92-25.79h-25.42l1-11.74h42.14l-1.08,11.81-24.63,26Z"/><path class="cls-1" d="M1558.91,1355.13l-2.44-7.28h-18.73l-2.45,7.28H1522l17.5-48.77,14.84-.79,17.79,49.56Zm-17.14-19h10.66l-5.33-15.77Z"/></g></g></svg>