<svg xmlns="http://www.w3.org/2000/svg" viewBox="0 0 1920 439.9"><defs><style>.cls-1{fill:#1e1e1c;}</style></defs><g id="Capa_2" data-name="Capa 2"><g id="Capa_1-2" data-name="Capa 1"><path class="cls-1" d="M501.82,222.38V200.06l-89.14-98.9H385.73L250.86,223.78,116,101.16H89L0,199.92v22.57L239.17,439.9h23.37l46.25-42.06,0,0,.16-.17Zm-407-106.9-1.3,77.58L12.73,203.57ZM244.34,427.24,12.58,216.55l84.68-11,1.07,1,146,132.71Zm0-105.37-138-125.46,0-1.42,1.37-83.94,136.61,124.2ZM489,203.57l-80.79-10.51-1.29-77.58Zm-231.6,31.68L394,111l1.38,84.78-1,1L257.36,321.27Zm0,192v-88.6l146.33-133,1.63,0,83.8,10.89Z"/><path class="cls-1" d="M363.94,36.49,333.52,0H167.33L137.88,35.34v15l99.87,90.8H263.1L363.94,49.48ZM243.66,129.17,148.5,42.66l24.84-29.8h70.32Zm13.54,0V12.86h70.32l24.84,29.81Z"/><path class="cls-1" d="M672.06,123l-.13,2H616.24l-.17,2.45c10.84,1.6,17.41,4.53,17.41,24.79V288.67c0,20.27-6.57,23.19-17.41,24.8l.17,2.45h58.24l.17-2.45c-9.52-1.38-17.41-3.72-17.41-24.8V258.24h14.54c26.45,0,47.54-11.33,59.4-31.91a70.81,70.81,0,0,0,0-69.75C719.33,136.24,698.35,125,672.06,125v-2Zm33,25.8c7.23,11.24,11.21,26.4,11.21,42.7,0,29.9-13.92,62.08-44.48,62.08H657.24V151.21c0-19.69,3.84-21.54,14-21.54h.54C689.09,129.67,699.43,140.09,705.05,148.83Z"/><path class="cls-1" d="M877.94,271l-2.36-.59c-.15.52-.3,1.08-.47,1.68-3.49,12.72-10.77,39.19-47.27,39.19h-9.71c-22.82,0-23.69-2.44-23.69-21.54V217.81h34.21c14.16,0,17.07,10.2,19.1,22.59l2.48-.2V190.79l-2.48-.2c-2,12.4-4.91,22.59-19.1,22.59H794.44V129.67H824.6c36.5,0,43.78,26.46,47.28,39.18.16.61.32,1.17.47,1.69l2.35-.6-7-41L862.65,125H753.43l-.16,2.45c10.84,1.6,17.4,4.53,17.4,24.79V288.67c0,20.27-6.56,23.19-17.4,24.8l.16,2.45H866.71l4.11-3.36Z"/><path class="cls-1" d="M1026.37,299.91c23.94,22.44,48.68,45.65,77.75,45.65,27.69,0,49.85-10.43,65.86-31l-1.91-1.91c-5.56,3.83-26.53,17.24-47.78,17.24-24.23,0-45.19-17.94-67.38-36.93-21.23-18.18-43.19-37-69.29-40.59l-6.37-.88,5.74-2.89c32.66-16.46,40.4-47.43,37.1-68.94-4.16-27.19-27.12-54.62-69-54.62H895.2l-.16,2.45c10.84,1.6,17.4,4.53,17.4,24.79V288.67c0,20.27-6.56,23.19-17.4,24.8l.16,2.45h58.25l.17-2.45c-9.53-1.38-17.41-3.72-17.41-24.8V151.21c0-19.69,3.84-21.54,14-21.54h.54c28.13,0,41.28,26.15,44,48.55,3.8,31.36-9.6,67.34-42.45,76.56l.55,3.22c1.39-.13,2.77-.19,4.14-.19C981.48,257.81,1003.33,278.3,1026.37,299.91Z"/><path class="cls-1" d="M1074.93,266.12c10.66,10.73,26,16.88,42.12,16.88s31.7-6.22,42.41-17.07c11-11.1,16.62-26.45,16.38-44.38V165.76c0-20,7.07-35.25,17.41-38.15l-.17-2.57H1154l-.17,2.57c10.34,2.9,17.41,18.15,17.41,38.15v55.76c0,34.31-22.91,52.27-45.53,52.27-21.59,0-43.37-16.17-43.37-52.27V152.28c0-20.26,6.56-23.19,17.4-24.79l-.17-2.45H1041.3l-.17,2.45c9.38,1.36,17.14,3.71,17.14,24.79V221.5C1058.15,239.59,1063.91,255,1074.93,266.12Z"/><path class="cls-1" d="M1321.65,291.1V152.28c0-20.26,6.57-23.19,17.4-24.79l-.16-2.45h-58.51l-.17,2.45c10.84,1.6,17.4,4.53,17.4,24.79V291.1c0,29.17-2.53,41.17-16.42,47.07l.9,3.28C1295.29,338.75,1321.65,328.65,1321.65,291.1Z"/><path class="cls-1" d="M1448.58,121c-26,0-50.28,8.81-68.32,24.81-20.39,18.08-31.17,43.9-31.17,74.68s10.75,56.48,31.07,74.58c18,16.06,42.34,24.91,68.42,24.91s50.25-8.85,68.32-24.91c20.39-18.12,31.17-43.91,31.17-74.58C1548.07,152.13,1496.5,121,1448.58,121Zm8.09,193c-41.65,0-83.81-38.05-83.81-110.76,0-52.68,32.89-76.26,65.48-76.26,20.33,0,40.81,8.89,56.18,24.38,13.77,13.87,30.11,39.46,29.78,82.61C1524,288.94,1489.05,314,1456.67,314Z"/><path class="cls-1" d="M1686.14,127.45,1686,125h-44.38l-.05,2.32c6.44.5,10.39,2.15,12.34,5.12,2.9,4.43,1.83,12.09-3.7,26.42l-29.69,77.37-32.66-85.43c-3.54-9.51-4.1-15.27-1.82-18.73,1.76-2.66,5.46-4.22,11.28-4.74l0-2.33h-58.9l-.05,2.34c13.76,1.33,19.09,9.61,29.14,35l31.2,79.6v36.45c0,19.93-5.19,30.16-17.81,34.78l.42,2.71h58.82l.42-2.71c-12.63-4.62-17.81-14.85-17.81-34.78V242.25l.13-.35L1655,159.69C1664.61,134.85,1672.59,129.16,1686.14,127.45Z"/><path class="cls-1" d="M1764,256.85c15.67,49.34,53.85,66.89,84.37,66.89,32.83,0,66.06-20.75,66.06-60.4,0-29.4-27.83-44.95-52.39-58.68l1-1.75h0l-1,1.75c-23-12.83-44.64-24.95-44.64-46.18s17.48-32.32,34.75-32.32c19.45,0,39.07,13.68,39.85,44.17l2.44.14,3.38-29.23c-.85-1.7-2.47-4.9-3.23-6.22-11.08-8.12-27.51-13-44.06-13-24.75,0-53.66,11.58-53.66,44.23,0,28.65,26.39,43.31,51.92,57.49,25.84,14.34,50.24,27.89,50.24,54.64,0,25.64-20.87,39.06-41.49,39.06-23.94,0-57-18.24-71.48-69.64l-39.42-124.42h-4.34L1697.2,267.05c-12.34,39.38-18,44.57-37.3,46.49l.11,2.38h53.57l.11-2.37c-8.35-.78-13.7-1.79-16.53-6-3.69-5.51-2.7-16.62,3.21-35.9h0l.46-1.8,4.7-15.09h57.72Zm-57.26-6.48,28.13-89.24,27.1,89.24Z"/><polygon class="cls-1" points="1154.25 90.45 1138.09 78.65 1136.5 79.38 1126.98 105.82 1131.6 105.88 1154.21 91.5 1154.25 90.45"/><path class="cls-1" d="M1177.21,432.63l-1.53-4.54H1164l-1.53,4.54h-8.27l10.92-30.44,9.27-.5,11.1,30.94Zm-10.7-11.87h6.65l-3.33-9.85Z"/><path class="cls-1" d="M1218.54,432.63h-7.87l-15-19.33.27,19.33h-7.65V401.69h7.51l15.34,18.94-.23-18.94h7.65Zm-10.89-39.34h5c0,6.25-5.76,8.5-9.89,5.93-1.26-.81-2.12-.67-2.12.54h-5c0-6.25,5.75-8.5,9.89-5.89C1206.8,394.64,1207.65,394.5,1207.65,393.29Z"/><path class="cls-1" d="M1244.26,432.63l-1.53-4.54H1231l-1.53,4.54h-8.27l10.92-30.44,9.27-.5,11.11,30.94Zm-10.7-11.87h6.65l-3.32-9.85Z"/><path class="cls-1" d="M1255.28,432.63V401.69h10.52c9.9,0,17.54,4.77,17.54,15.52s-7.64,15.42-17.54,15.42Zm7.65-7.33h2.87c7.6,0,9.85-2.65,9.85-8.09s-2.25-8.18-9.85-8.18h-2.87Z"/><path class="cls-1" d="M1294.86,432.63h-7.65V401.69h7.65Z"/><path class="cls-1" d="M1308.12,432.63h-7.64V401.69h9.89l8.9,19.07,9-19.07h9.9v30.94h-7.65V414.47l-8.23,18.16h-5.89l-8.23-18.16Z"/><path class="cls-1" d="M1341.94,417.16c0-10.7,7.38-15.6,17-15.6s17,4.9,17,15.6-7.42,15.65-17,15.65S1341.94,427.91,1341.94,417.16Zm7.69,0c0,4.63,2.34,8.37,9.35,8.37s9.36-3.74,9.36-8.37-2.39-8.32-9.36-8.32S1349.63,412.58,1349.63,417.16Z"/><path class="cls-1" d="M1391.41,432.81a41.24,41.24,0,0,1-12.86-1.89l1.66-7.06a43,43,0,0,0,10.93,1.58c4.18,0,8,.09,8-2.34,0-1.8-1.13-1.93-6.21-2.29-6.88-.45-14.25-2.52-14.25-9.4,0-7.2,7.1-9.85,14-9.85a46.28,46.28,0,0,1,10.79,1.17l-1.26,7.24a52.62,52.62,0,0,0-9.53-1c-5,0-6.34.36-6.34,2.25s2.43,2,6.92,2.25c6.7.45,13.54,2.29,13.54,9.27C1406.88,430.7,1398.6,432.81,1391.41,432.81Z"/><path class="cls-1" d="M1442.54,432.63l-1.53-4.54h-11.69l-1.53,4.54h-8.27l10.92-30.44,9.27-.5,11.1,30.94Zm-10.7-11.87h6.65l-3.32-9.85Z"/><path class="cls-1" d="M1461.25,432.63h-7.65V401.69h9.9l8.9,19.07,8.95-19.07h9.89v30.94h-7.64V414.47l-8.23,18.16h-5.89l-8.23-18.16Z"/><path class="cls-1" d="M1495.07,417.16c0-10.7,7.37-15.6,17-15.6s17,4.9,17,15.6-7.42,15.65-17,15.65S1495.07,427.91,1495.07,417.16Zm7.69,0c0,4.63,2.34,8.37,9.35,8.37s9.35-3.74,9.35-8.37-2.38-8.32-9.35-8.32S1502.76,412.58,1502.76,417.16Z"/><path class="cls-1" d="M1560.05,432.63h-9.35l-6.61-8.63h-3.42v8.63H1533V401.69h12.19c7.73,0,15.2,2.48,15.2,11.29,0,6-3.38,8.91-8,10.16Zm-14.88-15.78c5.44,0,7.51-.32,7.51-3.87s-2.07-4-7.51-4h-4.5v7.82Z"/><path class="cls-1" d="M1593.15,420.45H1582.9v4.85h17l-.63,7.33h-24.1V401.69h24.59l-.63,7.34H1582.9v4.09h10.88Z"/><path class="cls-1" d="M1634.12,432.63h-7.87l-15-19.33.27,19.33h-7.65V401.69h7.51l15.34,18.94-.23-18.94h7.65Z"/><path class="cls-1" d="M1675.58,423.82l2.52,6.83a30.24,30.24,0,0,1-12.14,2.16c-9.63,0-17-4.9-17-15.6s7.32-15.65,17-15.65a36.82,36.82,0,0,1,11,1.62l-2.15,7a35.4,35.4,0,0,0-8.86-1.22c-6.07,0-9.27,2.79-9.27,8.28s3.2,8.23,9.27,8.23A26,26,0,0,0,1675.58,423.82Z"/><path class="cls-1" d="M1702.7,432.63l-1.53-4.54h-11.69l-1.53,4.54h-8.27l10.92-30.44,9.27-.5,11.1,30.94ZM1692,420.76h6.65l-3.32-9.85Z"/><path class="cls-1" d="M1713.72,432.63V401.69h10.52c9.89,0,17.54,4.77,17.54,15.52s-7.65,15.42-17.54,15.42Zm7.64-7.33h2.88c7.6,0,9.85-2.65,9.85-8.09s-2.25-8.18-9.85-8.18h-2.88Z"/><path class="cls-1" d="M1765.12,432.63l-1.53-4.54H1751.9l-1.53,4.54h-8.27L1753,402.19l9.27-.5,11.1,30.94Zm-10.7-11.87h6.65l-3.32-9.85Z"/><path class="cls-1" d="M1794.85,432.63h-7.69V401.69h12.5c7.28,0,14.88,2.48,14.88,11.29s-7.6,11.2-14.88,11.2h-4.81Zm4.81-15.78c5.84,0,7.19-1.13,7.19-3.87s-1.35-4-7.19-4h-4.81v7.82Z"/><path class="cls-1" d="M1826.1,432.63h-7.64V401.69h7.64Z"/><path class="cls-1" d="M1849.62,420.45h-10.25v4.85h17l-.63,7.33h-24.1V401.69h24.6l-.63,7.34h-16.28v4.09h10.88Z"/><path class="cls-1" d="M1887.13,425.3l-.63,7.33h-27.34l.67-7.51L1875.39,409h-15.87l.63-7.34h26.3l-.67,7.38L1870.4,425.3Z"/><path class="cls-1" d="M1911.73,432.63l-1.53-4.54h-11.69l-1.53,4.54h-8.28l10.93-30.44,9.26-.5L1920,432.63ZM1901,420.76h6.66l-3.33-9.85Z"/></g></g></svg>